
<svg width="512" height="512" viewBox="0 0 24 24" xmlns="http://www.w3.org/2000/svg">
  <path fill="#3c9349" d="M19.86 8.012c-1.593-2.188-3.01-4.123-6.484-4.038c-3.474.085-4.988 3.036-7.114 3.021c-2.241-.016-4.564-4.271-4.236-1.724c.487 3.792 3.784 8.436 7.172 8.012c2.141-.269 3.346-1.172 3.42-3.988c3.303.188 4.27 1.913 6.47 1.761c2.2-.152 2.265-1.058 2.351-1.741c.087-.683.014-1.115-1.579-1.303"/>
  <path fill="#3c9349" d="M11.44 18.713c3.12-.884 4.262-2.104 5.971-3.113c1.13-.67 1.02-1.242.26-1.646c-.76-.404-1.684-.15-2.527.286c-1.375.712-2.062 2.334-3.742 2.455c-1.68.122-2.314-1.22-5.01-.544c-2.698.676-3.395 2.216-1.625 3.34c1.77 1.121 3.334.276 6.673-.778"/>
</svg>
